<svg width="19" height="18" viewBox="0 0 19 18" fill="none" xmlns="http://www.w3.org/2000/svg">
<path d="M0.495415 3.87535C0.186462 5.012 0.186462 6.58008 0.186462 9C0.186462 12.4373 0.186462 14.1559 1.07183 15.3607C1.35776 15.7498 1.70386 16.092 2.09742 16.3747C3.31602 17.25 5.05433 17.25 8.53096 17.25H10.3853C13.8619 17.25 15.6002 17.25 16.8188 16.3747C17.2124 16.092 17.5585 15.7498 17.8444 15.3607C18.7298 14.1559 18.7298 12.4373 18.7298 9C18.7298 6.57201 18.7298 5.00156 18.4177 3.864L16.4681 5.79154C14.9547 7.2878 13.7687 8.46038 12.7189 9.25227C11.6444 10.0628 10.6313 10.539 9.45799 10.539C8.28471 10.539 7.27156 10.0628 6.19704 9.25227C5.14725 8.46038 3.96124 7.28779 2.44786 5.79152L0.635076 3.99927L0.495415 3.87535Z" fill="white"/>
<path d="M1.11363 2.58333L1.21455 2.6659L1.59193 3.00074L3.39365 4.78206C4.95282 6.32358 6.07379 7.42978 7.04064 8.15911C7.99145 8.87634 8.71106 9.16402 9.45799 9.16402C10.2049 9.16402 10.9245 8.87634 11.8753 8.15911C12.8422 7.42978 13.9632 6.32358 15.5223 4.78206L17.6622 2.66648L17.7786 2.55197C17.4927 2.16287 17.2124 1.90804 16.8188 1.62534C15.6002 0.75 13.8619 0.75 10.3853 0.75H8.53096C5.05433 0.75 3.31602 0.75 2.09742 1.62534C1.70386 1.90804 1.39956 2.19423 1.11363 2.58333Z" fill="white"/>
</svg>
