<svg width="145" height="31" viewBox="0 0 145 31" fill="none" xmlns="http://www.w3.org/2000/svg">
<path d="M30.2406 26.5963L23.6043 16.9286C23.4482 16.6984 23.2139 16.4682 22.9797 16.3147L22.4332 15.9311C21.8086 15.4707 21.8086 14.6267 22.4332 14.1664L22.9017 13.8595C23.1359 13.706 23.3701 13.4758 23.5262 13.2456L30.3187 3.73137C30.8652 2.88737 30.9433 1.81318 30.3187 1.0459C29.5379 0.0484357 28.1326 -0.181746 27.1176 0.508805L17.2803 7.03068C17.0461 7.18413 16.8119 7.41431 16.6558 7.64449L16.2654 8.18159C15.7969 8.79542 14.9381 8.79542 14.4697 8.18159L14.1574 7.72122C14.0012 7.49104 13.767 7.26086 13.5328 7.1074L3.85164 0.432073C2.99282 -0.105022 1.89979 -0.18175 1.11905 0.432073C0.104093 1.19935 -0.130126 2.58046 0.572538 3.57792L7.20881 13.2456C7.36496 13.4758 7.59919 13.706 7.83341 13.8595L8.37992 14.2431C9.00451 14.7035 9.00451 15.5475 8.37992 16.0078L7.91147 16.3147C7.67725 16.4682 7.44304 16.6984 7.28689 16.9286L0.416393 26.5196C-0.208198 27.4403 -0.130122 28.6679 0.650617 29.4352C1.43136 30.2025 2.68053 30.3559 3.61741 29.7421L13.4547 23.2203C13.6889 23.0668 13.9232 22.8366 14.0793 22.6064L14.4697 22.0693C14.9381 21.4555 15.7969 21.4555 16.2654 22.0693L16.5777 22.5297C16.7338 22.7599 16.968 22.9901 17.2023 23.1435L27.0396 29.8956C27.9765 30.5094 29.2256 30.4327 30.0064 29.6654C30.7871 28.7447 30.8652 27.517 30.2406 26.5963Z" fill="#E3B748"/>
<path d="M42.1725 7.92906H45.6354V23.2135H42.1725V7.92906Z" fill="white"/>
<path d="M56.6987 10.5757C55.0857 10.5757 53.9166 11.0242 53.1915 11.9211C52.4812 12.8033 52.126 14.0164 52.126 15.5602C52.126 16.3101 52.2148 16.9939 52.3924 17.6114C52.57 18.2143 52.8364 18.7362 53.1915 19.1773C53.5467 19.6185 53.9906 19.964 54.5234 20.2139C55.0561 20.4492 55.6776 20.5668 56.388 20.5668C56.7727 20.5668 57.0983 20.5595 57.3647 20.5448C57.6458 20.5301 57.89 20.5007 58.0972 20.4566V15.1412H61.56V22.7062C61.1456 22.868 60.4797 23.037 59.5622 23.2135C58.6447 23.4046 57.5126 23.5002 56.166 23.5002C55.0117 23.5002 53.961 23.3238 53.0139 22.9709C52.0817 22.618 51.2825 22.1034 50.6166 21.427C49.9507 20.7506 49.4327 19.9199 49.0628 18.9347C48.7076 17.9496 48.5301 16.8248 48.5301 15.5602C48.5301 14.281 48.7298 13.1489 49.1294 12.1637C49.5289 11.1786 50.0765 10.3478 50.772 9.67144C51.4675 8.98037 52.2814 8.45839 53.2137 8.1055C54.1608 7.75262 55.1671 7.57617 56.2326 7.57617C56.9577 7.57617 57.6088 7.62763 58.186 7.73056C58.7779 7.81878 59.281 7.92906 59.6954 8.06139C60.1245 8.17902 60.4723 8.304 60.7387 8.43634C61.0198 8.56867 61.2196 8.67159 61.338 8.74511L60.3391 11.502C59.8656 11.2521 59.318 11.0389 58.6965 10.8624C58.0898 10.6713 57.4239 10.5757 56.6987 10.5757Z" fill="white"/>
<path d="M68.9773 20.5889C69.4656 20.5889 69.8652 20.5521 70.1759 20.4786C70.5015 20.3904 70.7604 20.2801 70.9528 20.1478C71.1452 20.0007 71.2784 19.8317 71.3524 19.6405C71.4264 19.4494 71.4634 19.2362 71.4634 19.0009C71.4634 18.501 71.2266 18.0893 70.753 17.7658C70.2795 17.4276 69.4656 17.0674 68.3113 16.6851C67.8082 16.5086 67.305 16.3101 66.8019 16.0896C66.2988 15.8543 65.8474 15.5676 65.4478 15.2294C65.0483 14.8765 64.7227 14.4575 64.4712 13.9723C64.2196 13.4723 64.0938 12.8695 64.0938 12.1637C64.0938 11.4579 64.227 10.8257 64.4934 10.2669C64.7597 9.6935 65.1371 9.20828 65.6254 8.81128C66.1138 8.41428 66.7057 8.11286 67.4012 7.907C68.0967 7.68645 68.8811 7.57617 69.7542 7.57617C70.79 7.57617 71.6853 7.68645 72.4401 7.907C73.1948 8.12756 73.8163 8.37017 74.3047 8.63483L73.3058 11.3477C72.8766 11.1271 72.3957 10.936 71.8629 10.7742C71.345 10.5978 70.7161 10.5095 69.9761 10.5095C69.1474 10.5095 68.5481 10.6272 68.1781 10.8624C67.823 11.083 67.6454 11.4285 67.6454 11.899C67.6454 12.1784 67.712 12.4137 67.8452 12.6048C67.9784 12.796 68.1633 12.9724 68.4001 13.1341C68.6517 13.2812 68.9329 13.4209 69.2436 13.5532C69.5692 13.6708 69.9243 13.7958 70.3091 13.9281C71.1082 14.2222 71.8037 14.5163 72.3957 14.8104C72.9876 15.0897 73.4759 15.4206 73.8607 15.8029C74.2603 16.1852 74.5562 16.6336 74.7486 17.1482C74.941 17.6629 75.0372 18.2878 75.0372 19.023C75.0372 20.4492 74.534 21.5593 73.5277 22.3533C72.5215 23.1326 71.0046 23.5223 68.9773 23.5223C68.2965 23.5223 67.6824 23.4782 67.1349 23.3899C66.5873 23.3164 66.099 23.2208 65.6698 23.1032C65.2555 22.9856 64.8929 22.8606 64.5821 22.7283C64.2862 22.5959 64.0346 22.471 63.8274 22.3533L64.8041 19.6185C65.2629 19.8684 65.8252 20.0963 66.4911 20.3022C67.1719 20.4933 68.0006 20.5889 68.9773 20.5889Z" fill="white"/>
<path d="M88.6775 7.92906V10.8624H84.0383V23.2135H80.5755V10.8624H75.9362V7.92906H88.6775Z" fill="white"/>
<path d="M96.9185 23.5223C95.8383 23.5223 94.906 23.3752 94.1217 23.0812C93.3373 22.7724 92.6862 22.3533 92.1683 21.824C91.6651 21.28 91.2878 20.6404 91.0362 19.9052C90.7994 19.1553 90.681 18.3319 90.681 17.435V7.92906H94.1438V17.1482C94.1438 17.7658 94.2104 18.2951 94.3436 18.7362C94.4916 19.1626 94.684 19.5155 94.9208 19.7949C95.1723 20.0596 95.4683 20.2507 95.8087 20.3683C96.1638 20.486 96.5486 20.5448 96.9629 20.5448C97.8064 20.5448 98.4872 20.2875 99.0051 19.7728C99.5378 19.2582 99.8042 18.3833 99.8042 17.1482V7.92906H103.267V17.435C103.267 18.3319 103.141 19.1553 102.89 19.9052C102.638 20.6551 102.253 21.302 101.735 21.8461C101.217 22.3754 100.559 22.7871 99.7598 23.0812C98.9607 23.3752 98.0136 23.5223 96.9185 23.5223Z" fill="white"/>
<path d="M110.06 20.4124C110.223 20.4271 110.408 20.4419 110.615 20.4566C110.837 20.4566 111.096 20.4566 111.392 20.4566C113.123 20.4566 114.403 20.0228 115.232 19.1553C116.076 18.2878 116.497 17.0894 116.497 15.5602C116.497 13.9576 116.098 12.7445 115.299 11.9211C114.5 11.0977 113.234 10.686 111.503 10.686C111.266 10.686 111.022 10.6933 110.77 10.708C110.519 10.708 110.282 10.7228 110.06 10.7522V20.4124ZM120.071 15.5602C120.071 16.8836 119.864 18.0378 119.45 19.023C119.035 20.0081 118.443 20.8241 117.674 21.4711C116.919 22.1181 115.994 22.6033 114.899 22.9268C113.804 23.2502 112.576 23.412 111.214 23.412C110.593 23.412 109.868 23.3826 109.039 23.3238C108.21 23.2797 107.396 23.1767 106.597 23.015V8.12756C107.396 7.98052 108.225 7.88495 109.083 7.84084C109.957 7.78202 110.704 7.75262 111.325 7.75262C112.642 7.75262 113.834 7.89965 114.899 8.19373C115.979 8.4878 116.904 8.95096 117.674 9.58322C118.443 10.2155 119.035 11.0242 119.45 12.0093C119.864 12.9945 120.071 14.1781 120.071 15.5602Z" fill="white"/>
<path d="M122.964 7.92906H126.426V23.2135H122.964V7.92906Z" fill="white"/>
<path d="M132.895 15.5602C132.895 16.3101 132.984 16.9865 133.161 17.5893C133.354 18.1922 133.62 18.7142 133.96 19.1553C134.316 19.5817 134.745 19.9125 135.248 20.1478C135.751 20.383 136.328 20.5007 136.979 20.5007C137.616 20.5007 138.185 20.383 138.689 20.1478C139.206 19.9125 139.636 19.5817 139.976 19.1553C140.331 18.7142 140.598 18.1922 140.775 17.5893C140.967 16.9865 141.064 16.3101 141.064 15.5602C141.064 14.8104 140.967 14.134 140.775 13.5311C140.598 12.9136 140.331 12.3916 139.976 11.9652C139.636 11.5241 139.206 11.1859 138.689 10.9507C138.185 10.7154 137.616 10.5978 136.979 10.5978C136.328 10.5978 135.751 10.7228 135.248 10.9727C134.745 11.208 134.316 11.5462 133.96 11.9873C133.62 12.4137 133.354 12.9356 133.161 13.5532C132.984 14.156 132.895 14.8251 132.895 15.5602ZM144.637 15.5602C144.637 16.8689 144.438 18.0231 144.038 19.023C143.653 20.0081 143.121 20.8389 142.44 21.5152C141.759 22.1769 140.945 22.6768 139.998 23.015C139.066 23.3532 138.06 23.5223 136.979 23.5223C135.929 23.5223 134.937 23.3532 134.005 23.015C133.073 22.6768 132.259 22.1769 131.563 21.5152C130.868 20.8389 130.32 20.0081 129.921 19.023C129.521 18.0231 129.321 16.8689 129.321 15.5602C129.321 14.2516 129.528 13.1047 129.943 12.1196C130.357 11.1197 130.912 10.2816 131.608 9.60527C132.318 8.92891 133.132 8.42163 134.049 8.08345C134.982 7.74526 135.958 7.57617 136.979 7.57617C138.03 7.57617 139.021 7.74526 139.954 8.08345C140.886 8.42163 141.7 8.92891 142.396 9.60527C143.091 10.2816 143.639 11.1197 144.038 12.1196C144.438 13.1047 144.637 14.2516 144.637 15.5602Z" fill="white"/>
</svg>
